<svg xmlns="http://www.w3.org/2000/svg" width="66.667" height="66.667" preserveAspectRatio="xMidYMid meet" version="1.0" viewBox="0 0 50 50"><metadata>Created by potrace 1.15, written by Peter Selinger 2001-2017</metadata><g fill="#000" stroke="none"><path d="M0 345 l0 -25 250 0 250 0 0 25 0 25 -250 0 -250 0 0 -25z" transform="translate(0.000000,50.000000) scale(0.100000,-0.100000)"/><path d="M0 250 c0 -19 7 -20 250 -20 243 0 250 1 250 20 0 19 -7 20 -250 20 -243 0 -250 -1 -250 -20z" transform="translate(0.000000,50.000000) scale(0.100000,-0.100000)"/><path d="M0 155 l0 -25 250 0 250 0 0 25 0 25 -250 0 -250 0 0 -25z" transform="translate(0.000000,50.000000) scale(0.100000,-0.100000)"/></g></svg>